<?xml version="1.0" encoding="utf-8"?>
<!-- Generator: Adobe Illustrator 23.0.3, SVG Export Plug-In . SVG Version: 6.00 Build 0)  -->
<svg version="1.1" id="Layer_1" xmlns="http://www.w3.org/2000/svg" xmlns:xlink="http://www.w3.org/1999/xlink" x="0px" y="0px"
	 viewBox="0 0 1200 190.93" style="enable-background:new 0 0 1200 190.93;" xml:space="preserve">
<style type="text/css">
	.st0{fill:#FFFFFF;}
	.st1{fill:#06D6A0;}
</style>
<path class="st0" d="M272.73,0H168.7h-3.77h-60.98c-4.05,0-7.32,3.41-7.32,7.63c0,4.21,3.28,7.62,7.32,7.62h77.19h89.79h0.77
	c42.47,0,76.9,35.88,76.9,80.14c0,44.27-34.42,80.14-76.9,80.14l-90.56-0.28h-77.19c-4.05,0-7.32,3.64-7.32,7.86
	c0,4.21,3.28,7.62,7.32,7.62h60.98v0.05h107.8c50.54,0,91.52-42.71,91.52-95.4C364.25,42.7,323.29,0,272.73,0"/>
<path class="st0" d="M137.12,42.65c0,4.7-3.82,8.53-8.53,8.53H8.53C3.82,51.18,0,47.36,0,42.65s3.82-8.53,8.53-8.53h120.06
	C133.31,34.11,137.12,37.93,137.12,42.65"/>
<path class="st0" d="M168.61,95.39c0,4.7-3.83,8.53-8.53,8.53H40c-4.71,0-8.53-3.83-8.53-8.53c0-4.71,3.82-8.54,8.53-8.54h120.06
	C164.78,86.86,168.61,90.67,168.61,95.39"/>
<path class="st0" d="M137.12,148.36c0,4.71-3.82,8.53-8.53,8.53H8.53c-4.71,0-8.53-3.83-8.53-8.53c0-4.7,3.82-8.53,8.53-8.53h120.06
	C133.31,139.83,137.12,143.64,137.12,148.36"/>
<path class="st1" d="M308.29,87.08h-22.08V65.02c0-4.59-3.71-8.3-8.29-8.3c-4.59,0-8.3,3.71-8.3,8.3v22.06h-22.08
	c-4.59,0-8.3,3.71-8.3,8.29c0,4.59,3.71,8.3,8.3,8.3h22.08v22.08c0,4.58,3.71,8.3,8.3,8.3c4.58,0,8.29-3.71,8.29-8.3v-22.08h22.08
	c4.58,0,8.29-3.71,8.29-8.3C316.58,90.81,312.87,87.08,308.29,87.08"/>
<path class="st0" d="M451.63,126.14v15.25h-12.95c-10.68,0-18.64-2.54-23.93-7.62c-5.27-5.09-7.9-13.6-7.9-25.54V51.82h-15.63V36.78
	h15.63V10.67h17.53v26.11h27.05v15.05h-27.05v56.79c0,6.74,1.23,11.34,3.71,13.83c2.47,2.47,6.76,3.71,12.85,3.71h10.67V126.14z"/>
<path class="st0" d="M523.49,43.06c7.06,5.08,11.97,11.89,14.76,20.4V36.78h17.34v104.61h-17.34v-26.68
	c-2.79,8.51-7.72,15.3-14.76,20.37c-7.05,5.09-15.65,7.63-25.82,7.63c-9.28,0-17.52-2.16-24.78-6.48
	c-7.24-4.32-12.91-10.52-17.05-18.59c-4.14-8.05-6.2-17.55-6.2-28.48c0-10.93,2.06-20.45,6.2-28.58
	c4.13-8.12,9.81-14.36,17.05-18.68c7.26-4.31,15.5-6.47,24.78-6.47C507.84,35.44,516.44,37.99,523.49,43.06z M476.99,61.07
	c-6.42,6.8-9.64,16.18-9.64,28.11c0,11.95,3.21,21.31,9.64,28.1c6.4,6.8,14.96,10.19,25.62,10.19c6.86,0,12.99-1.59,18.4-4.76
	c5.39-3.17,9.61-7.66,12.67-13.43c3.05-5.78,4.56-12.48,4.56-20.1c0-7.62-1.52-14.35-4.56-20.2c-3.07-5.84-7.28-10.33-12.67-13.44
	c-5.4-3.1-11.53-4.67-18.4-4.67C491.95,50.87,483.41,54.28,476.99,61.07z"/>
<path class="st0" d="M645.94,41.91c7.23,4.32,12.92,10.56,17.05,18.68c4.13,8.13,6.2,17.65,6.2,28.58c0,10.92-2.07,20.42-6.2,28.48
	c-4.13,8.07-9.82,14.27-17.05,18.59c-7.26,4.32-15.5,6.48-24.78,6.48c-10.16,0-18.76-2.58-25.82-7.72
	c-7.04-5.15-11.9-11.91-14.56-20.29v26.68h-17.34V0.38h17.34v63.08c2.66-8.38,7.52-15.14,14.56-20.29
	c7.07-5.15,15.66-7.72,25.82-7.72C630.44,35.44,638.7,37.6,645.94,41.91z M597.91,55.53c-5.46,3.12-9.72,7.6-12.75,13.44
	c-3.05,5.84-4.58,12.58-4.58,20.2c0,7.62,1.53,14.33,4.58,20.1c3.04,5.78,7.3,10.27,12.75,13.43c5.46,3.17,11.57,4.76,18.29,4.76
	c10.79,0,19.4-3.39,25.82-10.19c6.42-6.8,9.62-16.17,9.62-28.1s-3.21-21.32-9.62-28.11c-6.43-6.8-15.04-10.2-25.82-10.2
	C609.47,50.87,603.37,52.44,597.91,55.53z"/>
<rect x="677.94" y="36.78" class="st0" width="17.34" height="104.61"/>
<path class="st0" d="M721.68,36.78l33.92,82.31l31.46-82.31h19.25l-62.12,154.15h-19.63l21.72-51.26L702.26,36.78L721.68,36.78
	L721.68,36.78z"/>
<path class="st0" d="M874.13,43.06c7.06,5.08,11.97,11.89,14.76,20.4V36.78h17.34v104.61H888.9v-26.68
	c-2.79,8.51-7.72,15.3-14.76,20.37c-7.05,5.09-15.66,7.63-25.81,7.63c-9.27,0-17.52-2.16-24.77-6.48
	c-7.26-4.32-12.94-10.52-17.05-18.59c-4.14-8.05-6.19-17.55-6.19-28.48c0-10.93,2.05-20.45,6.19-28.58
	c4.13-8.12,9.81-14.36,17.05-18.68c7.24-4.31,15.5-6.47,24.77-6.47C858.48,35.44,867.09,37.99,874.13,43.06z M827.63,61.07
	c-6.42,6.8-9.61,16.18-9.61,28.11c0,11.95,3.21,21.31,9.61,28.1c6.4,6.8,14.96,10.19,25.63,10.19c6.86,0,12.98-1.59,18.4-4.76
	c5.39-3.17,9.61-7.66,12.66-13.43c3.05-5.78,4.58-12.48,4.58-20.1c0-7.62-1.53-14.35-4.58-20.2c-3.05-5.84-7.27-10.33-12.66-13.44
	c-5.42-3.1-11.53-4.67-18.4-4.67C842.6,50.87,834.05,54.28,827.63,61.07z"/>
<path class="st0" d="M975.57,126.14v15.25h-12.96c-10.67,0-18.64-2.54-23.92-7.62c-5.28-5.09-7.91-13.6-7.91-25.54V51.82h-15.61
	V36.78h15.61V10.67h17.53v26.11h27.07v15.05h-27.07v56.79c0,6.74,1.23,11.34,3.73,13.83c2.47,2.47,6.76,3.71,12.87,3.71h10.66
	V126.14z"/>
<path class="st1" d="M1089.95,41.96c7.23,4.32,12.91,10.56,17.05,18.68c4.12,8.13,6.19,17.65,6.19,28.58
	c0,10.92-2.07,20.42-6.19,28.48c-4.14,8.07-9.82,14.27-17.05,18.59c-7.24,4.32-15.52,6.48-24.78,6.48
	c-10.16,0-18.78-2.58-25.82-7.72c-7.06-5.15-11.91-11.91-14.58-20.29v76.2h-17.34V36.82h17.34v26.68
	c2.68-8.38,7.53-15.14,14.58-20.29c7.05-5.15,15.66-7.72,25.82-7.72C1074.44,35.48,1082.71,37.64,1089.95,41.96z M1041.94,55.58
	c-5.46,3.12-9.73,7.6-12.77,13.44c-3.05,5.85-4.56,12.58-4.56,20.2c0,7.62,1.52,14.33,4.56,20.1c3.05,5.78,7.3,10.27,12.77,13.43
	c5.46,3.17,11.56,4.76,18.29,4.76c10.79,0,19.41-3.39,25.81-10.19c6.42-6.8,9.64-16.17,9.64-28.1s-3.22-21.32-9.64-28.11
	c-6.42-6.8-15.03-10.2-25.81-10.2C1053.48,50.91,1047.39,52.48,1041.94,55.58z"/>
<path class="st1" d="M1178.28,141.44l-40.01-47.07v47.07h-17.34V0.41h17.34v81.93l39.45-45.54h21.14l-46.89,52.03l48.03,52.59
	h-21.72V141.44z"/>
<path class="st0" d="M674.88,12.84c0-6.47,5.24-11.73,11.73-11.73c6.47,0,11.73,5.25,11.73,11.73s-5.25,11.73-11.73,11.73
	S674.88,19.32,674.88,12.84z"/>
<path class="st1" d="M984.41,134.05c0-3.93,3.2-7.13,7.13-7.13s7.13,3.2,7.13,7.13c0,3.93-3.2,7.13-7.13,7.13
	C987.61,141.17,984.41,137.99,984.41,134.05z"/>
</svg>
