<?xml version="1.0" encoding="utf-8"?>
<!-- Generator: Adobe Illustrator 23.0.3, SVG Export Plug-In . SVG Version: 6.00 Build 0)  -->
<svg version="1.1" id="Layer_1" xmlns="http://www.w3.org/2000/svg" xmlns:xlink="http://www.w3.org/1999/xlink" x="0px" y="0px"
	 viewBox="0 0 512 512" style="enable-background:new 0 0 512 512;" xml:space="preserve">
<style type="text/css">
	.st0{fill:#09D5A0;}
	.st1{fill:#FFFFFF;}
</style>
<path class="st0" d="M512,256c0,141.39-114.61,256-256,256S0,397.39,0,256S114.61,0,256,0S512,114.61,512,256z"/>
<path class="st1" d="M256,512C114.84,512,0,397.16,0,256S114.84,0,256,0s256,114.84,256,256S397.16,512,256,512z M256,21.33
	C126.61,21.33,21.33,126.61,21.33,256S126.61,490.67,256,490.67S490.67,385.39,490.67,256S385.39,21.33,256,21.33z"/>
<path class="st1" d="M341.33,341.33c-5.89,0-10.66-4.78-10.66-10.66c0-5.89,4.78-10.67,10.66-10.67c35.29,0,64-28.71,64-64
	s-28.71-64-64-64H224c-5.89,0-10.67-4.78-10.67-10.67c0-5.89,4.78-10.66,10.67-10.66h117.33c47.06,0,85.34,38.27,85.34,85.33
	S388.39,341.33,341.33,341.33z"/>
<path class="st1" d="M288,341.33H170.67c-47.06,0-85.34-38.27-85.34-85.33s38.27-85.33,85.34-85.33c5.89,0,10.66,4.78,10.66,10.66
	c0,5.89-4.78,10.67-10.66,10.67c-35.29,0-64,28.71-64,64s28.71,64,64,64H288c5.89,0,10.67,4.78,10.67,10.67
	C298.67,336.55,293.89,341.33,288,341.33z"/>
<path class="st1" d="M266.67,234.67c-2.73,0-5.46-1.05-7.55-3.12l-42.66-42.66c-4.16-4.16-4.16-10.93,0-15.09l42.66-42.66
	c4.16-4.16,10.93-4.16,15.09,0c4.16,4.16,4.16,10.92,0,15.08l-35.12,35.11l35.12,35.12c4.16,4.16,4.16,10.92,0,15.08
	C272.13,233.62,269.4,234.67,266.67,234.67z"/>
<path class="st1" d="M245.33,384c-2.73,0-5.46-1.05-7.55-3.11c-4.16-4.16-4.16-10.93,0-15.09l35.11-35.11l-35.11-35.11
	c-4.16-4.16-4.16-10.92,0-15.08s10.92-4.16,15.08,0l42.67,42.66c4.16,4.16,4.16,10.92,0,15.08l-42.67,42.67
	C250.79,382.95,248.06,384,245.33,384z"/>
</svg>
