<?xml version="1.0" encoding="utf-8"?>
<!-- Generator: Adobe Illustrator 23.0.3, SVG Export Plug-In . SVG Version: 6.00 Build 0)  -->
<svg version="1.1" id="Layer_1" xmlns="http://www.w3.org/2000/svg" xmlns:xlink="http://www.w3.org/1999/xlink" x="0px" y="0px"
	 viewBox="0 0 429 429" style="enable-background:new 0 0 429 429;" xml:space="preserve">
<style type="text/css">
	.st0{fill:#00ABE1;}
	.st1{fill:#01ABE3;}
	.st2{fill:#E6FBF6;}
	.st3{fill:#00ACEA;}
	.st4{fill:#083863;}
</style>
<path class="st0" d="M308.1,338.57l70.09-33.11c15.45-7.8,34.31-2.08,42.82,12.99l-142.46,92.15c-19.1,8.81-40.53,11.24-61.12,6.92
	l-98.25-27.58c-9.04-2.54-18.72-1.48-27,2.96l-20.55,10.99l2.77-100.21l0.82,0.02c29.36-20.86,67.92-23.56,99.9-6.99l5.88,3.04
	c9.19,4.77,19.35,7.39,29.7,7.67l57.76,1.6C286.58,309.52,302.44,321.34,308.1,338.57z"/>
<path class="st1" d="M390.46,120.82c8.81,12.78,8.81,29.67,0,42.44c-4.31,6.25-6.62,13.67-6.62,21.27c0,0.69,0.02,1.38,0.06,2.07
	l0.02,0.28c0.87,15.28-7.75,29.62-21.95,36.53l-0.15,0.07c-7.57,3.64-13.77,9.61-17.7,17.03l-0.07,0.14
	c-7.18,13.67-22.09,21.95-37.98,21.11l-0.28-0.01c-8.55-0.47-17.03,1.74-24.26,6.31c-13.48,8.49-30.64,8.49-44.12,0
	c-6.58-4.16-14.22-6.37-22-6.37c-0.75,0-1.51,0.02-2.26,0.06l-0.28,0.01c-15.9,0.85-30.8-7.44-37.98-21.11l-0.07-0.14
	c-3.93-7.42-10.14-13.39-17.7-17.03l-0.15-0.07c-14.21-6.91-22.81-21.25-21.95-36.53l0.02-0.28c0.46-8.29-1.85-16.5-6.56-23.34
	c-8.83-12.77-8.83-29.67,0-42.44c4.31-6.25,6.62-13.67,6.62-21.27c0-0.69-0.02-1.38-0.06-2.07l-0.02-0.27
	c-0.75-15.5,7.91-29.92,21.95-36.53l0.15-0.07c7.57-3.65,13.77-9.61,17.7-17.04l0.07-0.14c7.18-13.67,22.08-21.96,37.98-21.12
	l0.28,0.02c8.55,0.46,17.02-1.74,24.26-6.31c13.48-8.49,30.64-8.49,44.12,0c7.24,4.57,15.72,6.77,24.26,6.31l0.28-0.02
	c15.9-0.84,30.8,7.45,37.98,21.12l0.07,0.14c3.93,7.42,10.13,13.39,17.7,17.04l0.15,0.07c14.03,6.61,22.69,21.04,21.95,36.53
	l-0.02,0.27C383.44,105.77,385.75,113.99,390.46,120.82z M329.81,181.88c0-17.8-12.22-32.23-27.28-32.23s-27.29,14.43-27.29,32.23
	c0,17.8,12.21,32.24,27.29,32.24C317.6,214.12,329.81,199.69,329.81,181.88z M243.7,102.21c0-17.8-12.22-32.23-27.28-32.23
	s-27.29,14.43-27.29,32.23c0,17.8,12.22,32.24,27.29,32.24S243.7,120.03,243.7,102.21z"/>
<path class="st2" d="M302.53,149.65c15.07,0,27.28,14.43,27.28,32.23c0,17.8-12.22,32.24-27.28,32.24s-27.29-14.43-27.29-32.24
	S287.45,149.65,302.53,149.65z"/>
<path class="st2" d="M216.42,69.99c15.07,0,27.28,14.43,27.28,32.23c0,17.8-12.22,32.24-27.28,32.24s-27.29-14.43-27.29-32.24
	S201.35,69.99,216.42,69.99z"/>
<path class="st3" d="M71.62,403.89l-0.31,11.29l-63.33-1.75l3.82-138.99l63.34,1.74l-0.76,27.5L71.62,403.89z"/>
<g>
	<path class="st4" d="M127.08,186.12l-0.02,0.22c0,0.04,0,0.07-0.01,0.1c-1.05,18.51,9.32,35.85,26.43,44.17l0.11,0.05l0.07,0.03
		c6.02,2.88,10.95,7.61,14.07,13.51l0.03,0.06c0.02,0.04,0.04,0.08,0.06,0.12c8.62,16.4,26.43,26.34,45.4,25.37l0.21-0.01
		c0.05,0,0.1,0,0.15,0c6.9-0.38,13.74,1.4,19.58,5.09c16.08,10.13,36.56,10.13,52.64,0c5.83-3.7,12.67-5.48,19.56-5.09l0.16,0.01
		l0.21,0.01c18.98,0.98,36.79-8.97,45.4-25.37c0.02-0.04,0.04-0.08,0.06-0.12l0.03-0.06c3.1-5.87,8.01-10.59,13.99-13.47l0.15-0.07
		l0.11-0.05c17.1-8.32,27.48-25.66,26.43-44.17l-0.01-0.13l-0.02-0.21c-0.03-0.52-0.04-1.04-0.04-1.56
		c-0.01-5.97,1.81-11.81,5.2-16.72c10.7-15.51,10.7-36.01,0.01-51.52c-3.69-5.37-5.5-11.79-5.17-18.29l0.02-0.18
		c0-0.05,0.01-0.1,0.01-0.15c0.93-18.71-9.5-36.15-26.43-44.16c-0.04-0.02-0.09-0.04-0.13-0.06l-0.1-0.04
		c-5.99-2.88-10.9-7.61-14.02-13.47l-0.09-0.19c-8.62-16.42-26.45-26.39-45.47-25.38l-0.15,0.01l-0.2,0.02
		c-6.87,0.37-13.69-1.42-19.5-5.09c-16.08-10.13-36.56-10.13-52.64,0c-5.81,3.68-12.63,5.46-19.51,5.09l-0.2-0.02
		c-0.05,0-0.1-0.01-0.15-0.01c-19.02-1.01-36.85,8.96-45.47,25.38l-0.09,0.19c-3.12,5.87-8.03,10.6-14.02,13.48l-0.1,0.04
		c-0.04,0.02-0.08,0.04-0.12,0.06c-16.94,8.02-27.37,25.45-26.43,44.17c0,0.04,0,0.08,0.01,0.12l0.02,0.21
		c0.03,0.51,0.04,1.04,0.04,1.56c0.01,5.98-1.81,11.81-5.2,16.73c-10.71,15.5-10.71,36.02,0,51.52
		C125.6,173.18,127.41,179.61,127.08,186.12z M135.06,125.36c5.24-7.58,8.04-16.58,8.03-25.8c0-0.84-0.02-1.7-0.07-2.54
		c0-0.04,0-0.07-0.01-0.11l-0.01-0.2c-0.54-12.23,6.32-23.59,17.4-28.81l0.08-0.04l0.1-0.05c9.11-4.36,16.58-11.55,21.29-20.49
		c0.02-0.05,0.05-0.11,0.08-0.16l0.04-0.07c6.01-11.02,17.86-17.57,30.39-16.8l0.2,0.02l0.14,0.01c10.2,0.57,20.32-2.06,28.95-7.53
		c10.87-6.85,24.71-6.85,35.59,0c8.63,5.46,18.76,8.1,28.95,7.53l0.14-0.01l0.2-0.02c12.53-0.76,24.37,5.78,30.38,16.8l0.04,0.07
		c0.03,0.05,0.05,0.11,0.08,0.16c4.72,8.94,12.18,16.12,21.29,20.49l0.1,0.05l0.09,0.04c11.07,5.22,17.93,16.57,17.41,28.79
		l-0.02,0.19c0,0.05-0.01,0.11-0.01,0.16c-0.54,10.06,2.26,20.02,7.96,28.32c6.93,10.04,6.93,23.33,0,33.37
		c-5.24,7.58-8.05,16.58-8.03,25.8c0,0.85,0.02,1.7,0.07,2.54c0,0.04,0,0.08,0,0.12l0.02,0.21c0.52,12.23-6.35,23.6-17.43,28.81
		l-0.16,0.07c-9.11,4.36-16.58,11.55-21.29,20.49c-0.03,0.05-0.05,0.1-0.07,0.14l-0.04,0.07c-5.74,10.89-17.7,17.46-30.45,16.79
		l-0.14-0.01l-0.2-0.01c-10.18-0.56-20.27,2.07-28.87,7.53c-10.88,6.85-24.72,6.86-35.6,0.01c-7.86-4.97-16.97-7.61-26.27-7.61
		c-0.87,0-1.74,0.02-2.61,0.07l-0.21,0.01c-0.05,0-0.1,0-0.15,0.01c-12.55,0.8-24.43-5.75-30.45-16.79l-0.04-0.07
		c-0.02-0.05-0.05-0.1-0.07-0.14c-4.73-8.97-12.23-16.17-21.38-20.53l-0.09-0.04c-11.08-5.22-17.95-16.58-17.41-28.82l0.02-0.22
		c0-0.04,0-0.08,0-0.12c0.54-10.06-2.26-20.02-7.96-28.33C128.12,148.68,128.12,135.4,135.06,125.36z"/>
	<path class="st4" d="M207.93,224.62c3.74,2.34,8.67,1.2,11-2.55l94.62-151.58c1.55-2.42,1.67-5.49,0.33-8.03s-3.94-4.17-6.81-4.25
		c-2.87-0.09-5.57,1.37-7.07,3.82l-94.62,151.58C203.05,217.36,204.19,222.28,207.93,224.62z"/>
	<path class="st4" d="M216.42,142.44c19.45,0,35.27-18.05,35.27-40.23c0-22.18-15.82-40.21-35.27-40.21
		c-19.45,0-35.28,18.04-35.28,40.21S196.96,142.44,216.42,142.44z M216.42,77.98c10.64,0,19.3,10.87,19.3,24.24
		c0,13.37-8.66,24.25-19.3,24.25c-10.64,0-19.3-10.89-19.3-24.25S205.77,77.98,216.42,77.98z"/>
	<path class="st4" d="M267.25,181.88c0,22.18,15.82,40.23,35.28,40.23c19.45,0,35.27-18.05,35.27-40.23
		c0-22.18-15.82-40.22-35.27-40.22C283.08,141.66,267.25,159.7,267.25,181.88z M321.83,181.88c0,13.37-8.66,24.25-19.3,24.25
		c-10.64,0-19.3-10.89-19.3-24.25c0-13.37,8.66-24.24,19.3-24.24C313.17,157.64,321.83,168.51,321.83,181.88z"/>
	<path class="st4" d="M427.96,314.52c-10.57-18.77-34.03-25.92-53.27-16.24l-62.55,29.55c-8.67-16.05-25.23-26.26-43.46-26.79
		l-57.76-1.6c-9.15-0.26-18.12-2.58-26.25-6.77l-5.88-3.05c-30.09-15.69-65.96-15.65-96.02,0.1l0.37-13.32
		c0.12-4.41-3.35-8.08-7.76-8.21l-63.34-1.74c-0.07,0-0.15,0-0.23,0c-4.32,0-7.86,3.44-7.98,7.76L0,413.22
		c-0.12,4.41,3.35,8.08,7.76,8.21l63.33,1.75h0.22c4.33,0,7.87-3.44,7.99-7.77l0.18-6.65l16.46-8.81c6.45-3.47,14.01-4.3,21.06-2.3
		l98.26,27.58c0.17,0.05,0.34,0.09,0.51,0.12c7.11,1.49,14.35,2.23,21.61,2.23c15.36,0.01,30.54-3.3,44.5-9.71
		c0.34-0.16,0.67-0.34,0.99-0.54l142.46-92.15C428.9,322.86,430.05,318.2,427.96,314.52z M63.64,403.68l-0.09,3.31l-47.36-1.31
		l3.39-123.02l47.37,1.3L63.64,403.68z M274.69,403.58c-17.35,7.84-36.73,10-55.37,6.18l-97.99-27.5
		c-11.03-3.12-22.83-1.83-32.92,3.6l-8.42,4.5l2.26-81.8c26.64-17.72,60.82-19.55,89.19-4.76l5.88,3.05
		c10.27,5.3,21.6,8.23,33.15,8.56l57.76,1.6c14.75,0.42,27.66,10.04,32.28,24.06c0.42,1.26,0.76,2.55,1.03,3.85l-86.04-2.37
		c-4.41-0.12-8.08,3.36-8.2,7.76c-0.12,4.41,3.35,8.08,7.76,8.21l94.93,2.61h0.22c4.33,0,7.87-3.44,7.99-7.77
		c0.09-3.47-0.17-6.94-0.78-10.36l64.17-30.32l0.19-0.09c9.1-4.61,20.11-3.07,27.6,3.86L274.69,403.58z"/>
</g>
</svg>
