<?xml version="1.0" encoding="utf-8"?>
<!-- Generator: Adobe Illustrator 23.0.3, SVG Export Plug-In . SVG Version: 6.00 Build 0)  -->
<svg version="1.1" id="Capa_1" xmlns="http://www.w3.org/2000/svg" xmlns:xlink="http://www.w3.org/1999/xlink" x="0px" y="0px"
	 viewBox="0 0 512.03 512.03" style="enable-background:new 0 0 512.03 512.03;" xml:space="preserve">
<style type="text/css">
	.st0{fill:#09D5A0;}
	.st1{fill:#FAFAFA;}
</style>
<path class="st0" d="M488.5,256.04l22.46-58.59c2.46-6.46,0.54-13.79-4.86-18.18l-48.7-39.49l-9.86-61.98
	c-1.09-6.85-6.46-12.19-13.31-13.28l-61.98-9.86L332.79,5.92c-4.35-5.41-11.84-7.33-18.14-4.86l-58.62,22.5L197.43,1.09
	c-6.5-2.5-13.76-0.51-18.14,4.86L139.8,54.69l-61.98,9.86C71,65.64,65.62,71.01,64.53,77.83l-9.86,61.98L5.94,179.3
	c-5.38,4.35-7.33,11.68-4.86,18.14l22.46,58.59L1.08,314.63c-2.5,6.46-0.51,13.79,4.86,18.14l48.74,39.46l9.86,61.98
	c1.09,6.85,6.43,12.22,13.28,13.31l61.98,9.86l39.49,48.7c4.38,5.44,11.71,7.36,18.18,4.86l58.56-22.43l58.59,22.46
	c1.86,0.7,3.78,1.06,5.73,1.06c4.7,0,9.34-2.08,12.45-5.95l39.46-48.7l61.98-9.86c6.85-1.09,12.22-6.46,13.31-13.31l9.86-61.98
	l48.7-39.46c5.41-4.38,7.33-11.68,4.86-18.14L488.5,256.04z"/>
<g>
	<path class="st1" d="M208.02,224.04c-26.46,0-48-21.54-48-48s21.54-48,48-48s48,21.54,48,48S234.49,224.04,208.02,224.04z
		 M208.02,160.04c-8.83,0-16,7.17-16,16s7.17,16,16,16s16-7.17,16-16S216.85,160.04,208.02,160.04z"/>
	<path class="st1" d="M304.02,384.04c-26.46,0-48-21.54-48-48s21.54-48,48-48s48,21.54,48,48S330.49,384.04,304.02,384.04z
		 M304.02,320.04c-8.8,0-16,7.2-16,16s7.2,16,16,16s16-7.2,16-16S312.82,320.04,304.02,320.04z"/>
	<path class="st1" d="M176.02,384.04c-3.23,0-6.46-0.96-9.28-2.98c-7.2-5.15-8.86-15.14-3.71-22.34l160-224
		c5.15-7.2,15.14-8.86,22.34-3.71c7.2,5.12,8.83,15.14,3.71,22.3l-160,224C185.91,381.7,181.01,384.04,176.02,384.04z"/>
</g>
</svg>
