<?xml version="1.0" encoding="utf-8"?>
<!-- Generator: Adobe Illustrator 23.0.3, SVG Export Plug-In . SVG Version: 6.00 Build 0)  -->
<svg version="1.1" id="Capa_1" xmlns="http://www.w3.org/2000/svg" xmlns:xlink="http://www.w3.org/1999/xlink" x="0px" y="0px"
	 viewBox="0 0 512 512" style="enable-background:new 0 0 512 512;" xml:space="preserve">
<style type="text/css">
	.st0{fill:#09D5A0;}
	.st1{fill:#FFFFFF;}
</style>
<polygon class="st0" points="20.01,353 157,95 206,40 249.73,11.4 317,30.26 367,88 374,148 292,300 352.8,295.34 463,309.9 
	505,338.97 505,459 437,486 321,486 208,462 180,472 98,494 41,460 12,394 "/>
<g>
	<g>
		<path class="st1" d="M257.76,55.14c-1.37-5.35-6.8-8.58-12.16-7.22c-21.57,5.51-39.51,19.04-50.51,38.11
			c-2.76,4.78-1.12,10.9,3.66,13.66c1.57,0.91,3.29,1.34,4.99,1.34c3.46,0,6.82-1.79,8.67-5c8.29-14.36,21.84-24.57,38.14-28.73
			C255.9,65.93,259.13,60.49,257.76,55.14z"/>
	</g>
</g>
<g>
	<g>
		<path class="st1" d="M279.57,46.48c-0.15-0.03-0.3-0.05-0.46-0.08c-5.45-0.84-10.52,2.9-11.36,8.35
			c-0.84,5.44,2.9,10.54,8.33,11.41c0.58,0.1,1.15,0.15,1.72,0.15c4.74,0,8.95-3.38,9.83-8.21
			C288.61,52.67,285.01,47.47,279.57,46.48z"/>
	</g>
</g>
<g>
	<g>
		<path class="st1" d="M460.96,302.8c-7.36-2.1-15.32-3.97-23.76-5.58c-0.48-0.12-0.96-0.21-1.46-0.27
			c-24.6-4.59-53.17-7.05-82.95-7.05c-16.5,0-32.61,0.77-47.9,2.22l61.79-107.02c15.51-26.87,19.6-58.27,11.52-88.42
			c-8.08-30.15-27.33-55.3-54.19-70.81c-55.67-32.14-127.1-13-159.24,42.67L90.19,197.71c-0.01,0.01-0.01,0.02-0.02,0.03
			c-0.01,0.01-0.01,0.02-0.02,0.03L15.57,326.95c-15.51,26.87-19.6,58.27-11.52,88.42c8.08,30.15,27.33,55.3,54.19,70.81
			c17.77,10.26,37.74,15.54,57.98,15.54c8.53,0,17.11-0.94,25.6-2.83c22.59-5.04,42.9-16.49,58.64-32.8
			c7.91,9.02,22.64,16.64,44.08,22.77c29.05,8.3,67.49,12.87,108.25,12.87c40.76,0,79.2-4.57,108.25-12.87
			C494.85,479.2,512,465.82,512,449.1V342.59c0-0.02,0-0.04,0-0.06C512,325.84,494.83,312.47,460.96,302.8z M352.8,309.9
			c15.74,0,31.08,0.72,45.59,2.08l-127.03,56.07c-7.54-1.46-14.65-3.13-21.23-5.01c-29.97-8.56-36.53-17.7-36.53-20.51
			s6.56-11.94,36.53-20.51C277.5,314.2,313.96,309.9,352.8,309.9z M182.1,78.53c26.62-46.12,85.8-61.97,131.92-35.35
			c22.24,12.84,38.17,33.68,44.87,58.67c6.7,25,3.32,51.01-9.52,73.25l-69.35,120.11c-0.27,0.04-0.54,0.09-0.81,0.13l-166.72-96.26
			L182.1,78.53z M193.6,342.48c0,0.02,0,0.04,0,0.05v100.85c-29,38.41-83.43,49.7-125.35,25.49C46,456.03,30.07,435.2,23.37,410.2
			c-6.7-25-3.32-51.01,9.52-73.25l69.6-120.56l147.23,85.01c-1.73,0.45-3.43,0.91-5.09,1.39
			C210.81,312.46,193.64,325.81,193.6,342.48z M492,449.1c0,2.81-6.55,11.99-36.45,20.53c-27.31,7.8-63.8,12.1-102.75,12.1
			s-75.44-4.3-102.76-12.1c-29.9-8.54-36.45-17.72-36.45-20.53v-79.27c7.98,4.65,18.33,8.8,31.04,12.43
			c7.85,2.24,16.39,4.2,25.45,5.88c0.44,0.11,0.89,0.19,1.34,0.24c24.24,4.4,52.23,6.77,81.38,6.77c40.65,0,79.06-4.58,108.16-12.89
			c12.7-3.63,23.06-7.78,31.04-12.43V449.1z M492,342.53v0.03c-0.04,2.83-6.65,11.94-36.53,20.48
			c-27.37,7.82-63.83,12.12-102.67,12.12c-15.06,0-29.76-0.65-43.71-1.9l126.72-55.93c6.95,1.39,13.55,2.95,19.67,4.7
			c29.92,8.55,36.51,17.67,36.53,20.49C492,342.52,492,342.52,492,342.53z"/>
	</g>
</g>
</svg>
