<?xml version="1.0" encoding="utf-8"?>
<!-- Generator: Adobe Illustrator 23.0.3, SVG Export Plug-In . SVG Version: 6.00 Build 0)  -->
<svg version="1.1" id="Capa_1" xmlns="http://www.w3.org/2000/svg" xmlns:xlink="http://www.w3.org/1999/xlink" x="0px" y="0px"
	 viewBox="0 0 512 512" style="enable-background:new 0 0 512 512;" xml:space="preserve">
<style type="text/css">
	.st0{fill:#09D5A0;}
	.st1{fill:#0ABF8B;}
	.st2{fill:#FFFFFF;}
	.st3{fill:#20B78C;}
	.st4{fill:#0D9E71;}
</style>
<g>
	<path class="st0" d="M359.72,103.8l-40.08-83.93H44.08C19.74,19.87,0,39.6,0,63.94v286.05c0,24.34,19.74,44.08,44.08,44.08h353.79
		c24.34,0,44.08-19.74,44.08-44.08V142.16L359.72,103.8z"/>
	<path class="st1" d="M319.64,19.86v81.13c0,22.74,18.43,41.17,41.17,41.17h81.13L319.64,19.86z"/>
	<path class="st1" d="M32.4,215.74c0-66.43,19.84-139.32,59.76-195.87H44.08C19.74,19.87,0,39.6,0,63.94v286.05
		c0,24.34,19.73,44.08,44.08,44.08h83.65C69.14,349.81,32.4,286.3,32.4,215.74L32.4,215.74z"/>
	<g>
		<path class="st2" d="M60.73,156.72c4.27,0,7.73-3.46,7.73-7.73v-31.96c0.27,0.31,42.98,48.84,43.07,48.94l-24.04,21.16
			c-3.2,2.82-3.51,7.7-0.7,10.9c2.82,3.21,7.71,3.51,10.9,0.7l24.04-21.16l21.16,24.04c2.82,3.21,7.71,3.51,10.9,0.7
			c3.2-2.82,3.51-7.7,0.7-10.9l-21.16-24.04l24.04-21.16c3.2-2.82,3.51-7.7,0.7-10.9c-2.82-3.2-7.7-3.51-10.9-0.7l-24.04,21.16
			c-2.25-2.56,10.33,11.73-35.48-40.32c15.2-1.98,26.95-14.51,26.95-29.63c0-16.49-13.98-29.91-31.16-29.91H60.76
			c-0.01,0-0.01,0-0.01,0s-0.01,0-0.01,0c-4.27,0-7.73,3.46-7.73,7.73v85.35C53,153.26,56.46,156.72,60.73,156.72L60.73,156.72z
			 M83.44,71.36c8.52,0,15.71,6.62,15.71,14.46s-7.19,14.46-15.71,14.46c-3.42,0-9.75,0.03-14.84,0.05
			c-0.08-14.66-0.04-10.7-0.09-28.97L83.44,71.36z"/>
		<path class="st2" d="M60.73,248.29h277c4.27,0,7.73-3.46,7.73-7.73c0-4.27-3.46-7.73-7.73-7.73h-277c-4.27,0-7.73,3.46-7.73,7.73
			C53,244.83,56.46,248.29,60.73,248.29z"/>
		<path class="st2" d="M337.73,280.22h-277c-4.27,0-7.73,3.46-7.73,7.73c0,4.27,3.46,7.73,7.73,7.73h277c4.27,0,7.73-3.46,7.73-7.73
			C345.45,283.68,341.99,280.22,337.73,280.22z"/>
		<path class="st2" d="M152.05,327.62H60.73c-4.27,0-7.73,3.46-7.73,7.73s3.46,7.73,7.73,7.73h91.32c4.27,0,7.73-3.46,7.73-7.73
			S156.32,327.62,152.05,327.62z"/>
	</g>
	<path class="st3" d="M450.05,430.2l-41.19,41.19c-27.7,27.68-72.54,27.67-100.22,0c-27.68-27.68-27.68-72.55,0-100.22l41.19-41.19
		l81.08,19.14L450.05,430.2z"/>
	<path class="st4" d="M345.45,436.64c0-35.65,17.17-70.39,43.73-97.38l-39.35-9.29l-41.19,41.19c-27.68,27.68-27.68,72.55,0,100.22
		c12.18,12.17,27.69,18.99,43.59,20.45C347.18,475.51,345.45,456.94,345.45,436.64z"/>
	<path class="st0" d="M491.24,389.02l-41.19,41.18L349.83,329.97l41.19-41.19c27.68-27.68,72.55-27.68,100.22,0
		S518.92,361.33,491.24,389.02L491.24,389.02z"/>
	<path class="st1" d="M490.65,288.23c-27.72-27.1-72.15-26.92-99.63,0.56l-41.19,41.19l25.36,25.36
		C402.49,319.7,445.45,293.39,490.65,288.23L490.65,288.23z"/>
</g>
</svg>
