<?xml version="1.0" encoding="utf-8"?>
<!-- Generator: Adobe Illustrator 23.0.3, SVG Export Plug-In . SVG Version: 6.00 Build 0)  -->
<svg version="1.1" id="Capa_1" xmlns="http://www.w3.org/2000/svg" xmlns:xlink="http://www.w3.org/1999/xlink" x="0px" y="0px"
	 viewBox="0 0 512 512" style="enable-background:new 0 0 512 512;" xml:space="preserve">
<style type="text/css">
	.st0{fill:#09D5A0;}
	.st1{fill:#FFFFFF;}
</style>
<polygon class="st0" points="157,105.94 157,34 209,12 255.42,44 295,12 356,43 356,99 255.42,206 "/>
<polygon class="st0" points="12,389 12,500 59,500 139,431 356,438 488,305 495,260.33 470,248 441,248 379.28,313 336,334 322,312 
	306,276 119,275 "/>
<g>
	<path class="st1" d="M512,278.67c-0.14-13.26-5.49-25.61-15.06-34.79c-9.16-8.78-21.14-13.6-33.81-13.6c-0.18,0-0.36,0-0.54,0
		c-12.86,0.14-24.95,5.23-34.04,14.33l-68.97,69.03h-21.56c0.19-1.73,0.28-3.49,0.28-5.28c0-26.8-21.79-48.61-48.58-48.61H114.98
		L0,374.84V512h75.64l62.01-62.07h224l136.04-136.16C507.06,304.4,512.14,291.93,512,278.67L512,278.67z M476.47,292.57
		L349.21,419.93h-224L63.2,482H30v-94.74l97.41-97.5h162.31c10.25,0,18.58,8.35,18.58,18.61s-8.34,18.61-18.58,18.61H170.84v30
		h118.88c12.92,0,24.68-5.07,33.39-13.33h48.9l77.76-77.82c7.2-7.21,19.05-7.34,26.4-0.28c3.7,3.55,5.77,8.33,5.82,13.45
		S480.09,288.94,476.47,292.57L476.47,292.57z"/>
	<path class="st1" d="M255.43,224.34L358.5,121.26c27.7-27.7,27.7-72.78,0-100.48c-27.7-27.7-72.77-27.7-100.47,0l-2.6,2.6l-2.6-2.6
		c-27.7-27.7-72.77-27.7-100.47,0c-27.7,27.7-27.7,72.78,0,100.48L255.43,224.34z M173.56,41.99c8-8,18.51-12,29.02-12
		c10.51,0,21.02,4,29.02,12l23.82,23.82l23.82-23.82c7.75-7.75,18.06-12.02,29.02-12.02s21.27,4.27,29.02,12.02
		c16,16,16,42.05,0,58.05l-81.86,81.87l-81.86-81.87C157.56,84.04,157.56,58,173.56,41.99L173.56,41.99z"/>
</g>
</svg>
